<svg width="98" height="153" viewBox="0 0 98 153" fill="none" xmlns="http://www.w3.org/2000/svg">
<path d="M69.9889 31.3162C70.7156 30.4133 70.9579 28.8057 70.9579 28.8057H27.6396C27.6396 28.8057 28.1682 30.5895 28.6307 31.3162H69.9889Z" fill="#996600"/>
<path d="M67.4757 34.9937C68.2906 34.2669 69.1054 32.8354 69.1054 32.8354H29.4209C29.4209 32.8354 29.8613 33.9146 30.8524 34.9937H67.4757Z" fill="#996600"/>
<path d="M64.33 38.3189C65.299 37.7903 66.1138 36.6892 66.1138 36.6892H32.1992C32.1992 36.6892 33.0141 37.5921 33.8069 38.3189H64.33Z" fill="#996600"/>
<path d="M60.3847 41.4682C61.3537 41.0938 62.4548 40.2129 62.4548 40.2129H36.0059C36.0059 40.2129 36.0059 40.4111 37.8778 41.4682H60.3847Z" fill="#996600"/>
<path d="M40.8965 43.4282C40.8965 43.4282 43.6933 45.0579 49.1549 45.0579C54.6165 45.0579 58.1181 43.4282 58.1181 43.4282H40.8965Z" fill="#996600"/>
<path d="M40.4553 47.1058C40.4553 47.1058 43.7807 47.2819 45.7407 48.8015C47.6346 50.4312 49.0661 53.1179 49.0661 53.1179C49.0661 53.1179 50.2333 50.5413 52.1272 49.1759C53.9991 47.7224 57.0602 47.1058 57.0602 47.1058H91.2611L98 57.0599H67.3007C67.3007 57.0599 65.1425 57.148 61.9272 59.0419C60.2094 60.0109 58.9542 61.7287 58.9542 61.7287C58.9542 61.7287 58.7119 62.5435 58.3375 62.984C57.9631 63.4464 57.6989 63.7988 57.2584 63.975C56.796 64.1732 56.9061 64.0631 56.9061 64.0631H40.9398C40.9398 64.0631 40.3011 63.8208 39.9708 63.2482C39.6184 62.7197 39.8827 62.8959 39.5083 62.4554C39.244 62.015 38.6054 60.8258 36.1829 59.2181C33.6724 57.5885 31.2499 57.4123 31.2499 57.4123H0L6.80494 47.0837H40.4553V47.1058Z" fill="#003366"/>
<path d="M16.3184 61.2007V112.161C16.3184 112.161 16.4945 116.653 20.2824 122.753C24.0482 128.854 29.5098 131.651 29.5098 131.651L33.8262 124.934C33.8262 124.934 30.0604 122.687 27.1975 118.371C24.4226 114.077 24.4226 110.377 24.4226 110.377V61.2007H16.3404H16.3184Z" fill="#003366"/>
<path d="M74.1072 61.0244V110.201C74.1072 110.201 73.4906 115.134 71.1342 118.635C68.7998 122.225 64.9238 125.11 64.9238 125.11L69.0641 131.739C69.0641 131.739 75.3405 127.18 78.3796 122.313C81.4407 117.468 82.1674 110.201 82.1674 110.201V61.0244H74.0852H74.1072Z" fill="#003366"/>
<path d="M3.50195 61.2007V112.359C3.50195 112.359 4.03049 120.265 8.96353 128.523C13.9186 136.76 22.8817 142.508 22.8817 142.508L27.11 135.791C27.11 135.791 21.3622 132.73 16.8035 125.727C12.1127 118.635 11.8705 112.183 11.8705 112.183V61.2007H3.50195Z" fill="#003366"/>
<path d="M40.455 66.5737V120.595C40.455 120.595 40.2568 120.771 40.1907 121.586C40.1026 122.401 39.552 122.951 39.552 122.951L21.5156 152.836H76.792L58.7556 122.313L58.2271 120.947L58.0509 119.516V66.6838H51.312V121.52C51.312 121.52 51.312 122.313 51.5763 122.951C51.7525 123.59 52.1269 124.559 52.1269 124.559L63.2482 142.86H35.0815L46.0266 124.647C46.0266 124.647 46.379 124.03 46.6653 123.127C46.8415 122.313 46.9296 121.52 46.9296 121.52V66.5737H40.477H40.455Z" fill="#996600"/>
<path d="M86.5717 61.0244V111.28C86.5717 111.28 86.4836 117.732 81.7268 125.176C76.9699 132.641 71.4863 135.769 71.4863 135.769L75.5385 142.574C75.5385 142.574 83.7749 137.376 88.9942 129.118C94.1034 120.859 94.7421 111.258 94.7421 111.258V61.0244H86.5717Z" fill="#003366"/>
<path d="M27.3534 27.3739C27.3534 27.3739 24.5786 12.2225 35.6999 4.66876C35.6999 4.66876 40.721 0 48.8914 0C57.6123 0 62.6334 4.55865 62.6334 4.55865C74.7458 13.4337 71.1561 27.3519 71.1561 27.3519H27.3534V27.3739Z" fill="#996600"/>
</svg>
